<svg xmlns="http://www.w3.org/2000/svg" xmlns:xlink="http://www.w3.org/1999/xlink" version="1.1" x="0px" y="0px" viewBox="0 0 100 125" enable-background="new 0 0 100 100" xml:space="preserve"><path d="M83.466,41.008h-0.081H66.24H50.214H33.069h-9.807l35.945-9.826l2.334-0.638l0,0l12.62-3.45l0,0l12.55-3.431  c0.584-0.16,0.929-0.763,0.769-1.347l-0.036-0.133v0L84.708,12.18l0,0l-0.036-0.133c-0.037-0.136-0.102-0.255-0.182-0.361  c-0.025-0.034-0.058-0.06-0.087-0.09c-0.062-0.065-0.126-0.124-0.201-0.173c-0.041-0.026-0.082-0.046-0.125-0.066  c-0.076-0.036-0.154-0.062-0.236-0.08c-0.048-0.01-0.094-0.02-0.143-0.024c-0.028-0.002-0.055-0.014-0.084-0.014  c-0.096,0-0.193,0.013-0.29,0.039h0L63.712,16.64L14.914,29.98l-4.086,1.117c-0.176,0.048-0.321,0.146-0.446,0.262  c-0.161-0.083-0.362,0.023-0.362,0.214v9.436v6.514v3.231v0.199v17.686v13.609c0,0.674,0.103,1.325,0.293,1.937  c0.127,0.408,0.293,0.799,0.493,1.168c0.1,0.185,0.209,0.364,0.326,0.537c0.234,0.347,0.501,0.669,0.795,0.964  c0.147,0.147,0.302,0.288,0.463,0.42c0.483,0.398,1.023,0.728,1.608,0.976c0.39,0.165,0.799,0.293,1.223,0.38  c0.424,0.087,0.863,0.132,1.313,0.132h66.932c3.597,0,6.514-2.916,6.514-6.514v-9.049V50.952v-3.43v-6.514H83.466z M46.089,33.731  l-12.62,3.45l-10.85-8.271l12.619-3.45L46.089,33.731z M79.999,61.495c0.591,0,1.07,0.479,1.07,1.07s-0.479,1.07-1.07,1.07H19.867  c-0.591,0-1.07-0.479-1.07-1.07s0.479-1.07,1.07-1.07H79.999z M19.834,70.804h60.132c0.591,0,1.07,0.479,1.07,1.07  c0,0.591-0.479,1.07-1.07,1.07H19.834c-0.591,0-1.07-0.479-1.07-1.07C18.764,71.282,19.243,70.804,19.834,70.804z M80.032,82.251  H19.901c-0.591,0-1.07-0.479-1.07-1.07s0.479-1.07,1.07-1.07h60.132c0.591,0,1.07,0.479,1.07,1.07S80.623,82.251,80.032,82.251z   M82.073,42.008l-10.42,7.944H54.508l10.42-7.944H82.073z M48.902,42.008l-10.42,7.944H21.337l10.42-7.944H48.902z M60.54,29.781  l-10.85-8.271l12.619-3.45l10.85,8.271L60.54,29.781z"/><text x="0" y="115" fill="#000000" font-size="5px" font-weight="bold" font-family="'Helvetica Neue', Helvetica, Arial-Unicode, Arial, Sans-serif">Created by Romualdas Jurgaitis</text><text x="0" y="120" fill="#000000" font-size="5px" font-weight="bold" font-family="'Helvetica Neue', Helvetica, Arial-Unicode, Arial, Sans-serif">from the Noun Project</text></svg>