<svg xmlns="http://www.w3.org/2000/svg" xmlns:xlink="http://www.w3.org/1999/xlink" version="1.1" x="0px" y="0px" viewBox="0 0 100 125" enable-background="new 0 0 100 100" xml:space="preserve"><path d="M88.746,54.003c-0.34-0.287-0.786-0.405-1.225-0.33l-17.509,3.05c-0.721,0.125-1.244,0.748-1.244,1.48v0.609h-0.621v-6.227  c0-0.89-0.724-1.614-1.613-1.614h-1.392c7.194-1.778,12.535-8.257,12.535-16.001c0-9.113-7.388-16.501-16.501-16.501  c-9.113,0-16.501,7.388-16.501,16.501c0,7.743,5.341,14.222,12.535,16.001H31.684c7.194-1.778,12.535-8.257,12.535-16.001  c0-9.113-7.388-16.501-16.501-16.501c-9.113,0-16.501,7.388-16.501,16.501c0,7.743,5.341,14.222,12.535,16.001h-1.849  c-0.89,0-1.613,0.724-1.613,1.614v25.691c0,0.89,0.724,1.614,1.613,1.614h6.794v0.524c0,0.89,0.724,1.614,1.613,1.614h27.815  c0.89,0,1.613-0.724,1.613-1.614v-0.524h6.794c0.89,0,1.613-0.724,1.613-1.614V72.05h0.621v0.609c0,0.732,0.523,1.355,1.244,1.48  l17.509,3.05c0.087,0.015,0.173,0.022,0.26,0.022c0.351,0,0.692-0.123,0.965-0.353c0.341-0.287,0.536-0.706,0.536-1.15V55.153  C89.282,54.708,89.087,54.29,88.746,54.003z M61.177,36.929c-1.081,0-1.957-0.876-1.957-1.957c0-1.081,0.876-1.957,1.957-1.957  c1.081,0,1.957,0.876,1.957,1.957C63.134,36.052,62.258,36.929,61.177,36.929z M67.903,46.965c-0.026,0.008-0.052,0.011-0.079,0.015  c-0.076,0.012-0.153,0.014-0.227-0.002c-0.013-0.003-0.027-0.003-0.04-0.006c-0.086-0.025-0.164-0.071-0.232-0.131  c-0.015-0.013-0.028-0.028-0.042-0.043c-0.065-0.07-0.12-0.151-0.148-0.253l-1.781-6.647c-0.029-0.108-0.023-0.212,0.002-0.309  c0.008-0.032,0.028-0.057,0.041-0.087c0.026-0.06,0.055-0.118,0.098-0.166c0.025-0.027,0.056-0.047,0.085-0.069  c0.047-0.036,0.096-0.068,0.152-0.09c0.036-0.014,0.075-0.02,0.114-0.027c0.083-0.014,0.167-0.025,0.257-0.001l0,0l6.647,1.781  c0.171,0.046,0.281,0.163,0.357,0.299c0.126,0.226,0.125,0.517-0.083,0.725l-4.866,4.866C68.084,46.895,67.995,46.937,67.903,46.965  z M73.025,27.989c0.25,0.25,0.227,0.632,0.007,0.859c-0.073,0.076-0.168,0.134-0.282,0.164l-6.647,1.781  c-0.09,0.024-0.174,0.013-0.257-0.001c-0.039-0.007-0.078-0.013-0.114-0.027c-0.056-0.022-0.105-0.054-0.152-0.09  c-0.029-0.023-0.06-0.042-0.085-0.069c-0.043-0.048-0.072-0.106-0.098-0.166c-0.013-0.03-0.033-0.055-0.041-0.087  c-0.025-0.097-0.03-0.201-0.002-0.309l1.781-6.647c0.027-0.102,0.083-0.183,0.148-0.253c0.014-0.015,0.027-0.03,0.042-0.043  c0.068-0.06,0.147-0.106,0.232-0.131c0.013-0.004,0.026-0.003,0.04-0.006c0.074-0.016,0.151-0.015,0.227-0.002  c0.027,0.004,0.053,0.007,0.079,0.015c0.091,0.028,0.18,0.071,0.256,0.146L73.025,27.989z M54.45,22.978  c0.026-0.008,0.052-0.011,0.079-0.015c0.076-0.012,0.153-0.014,0.227,0.002c0.013,0.003,0.027,0.003,0.04,0.006  c0.086,0.025,0.164,0.071,0.232,0.131c0.015,0.013,0.028,0.028,0.042,0.043c0.065,0.07,0.12,0.151,0.148,0.253l1.781,6.647  c0.029,0.108,0.023,0.212-0.002,0.309c-0.008,0.032-0.028,0.057-0.041,0.087c-0.026,0.06-0.055,0.118-0.098,0.166  c-0.025,0.027-0.056,0.047-0.085,0.069c-0.047,0.036-0.096,0.068-0.152,0.09c-0.036,0.014-0.075,0.02-0.114,0.027  c-0.083,0.014-0.167,0.025-0.257,0.001l-6.647-1.781c-0.455-0.122-0.607-0.691-0.274-1.024l4.866-4.866  C54.27,23.048,54.359,23.005,54.45,22.978z M49.603,40.93l6.647-1.781l0,0c0.089-0.024,0.174-0.013,0.257,0.001  c0.039,0.007,0.078,0.013,0.114,0.027c0.056,0.022,0.105,0.054,0.152,0.09c0.029,0.023,0.06,0.042,0.085,0.069  c0.043,0.048,0.072,0.106,0.098,0.166c0.013,0.029,0.033,0.055,0.041,0.087c0.025,0.097,0.031,0.201,0.002,0.309l-1.781,6.647  c-0.027,0.102-0.083,0.183-0.148,0.253c-0.014,0.015-0.027,0.03-0.042,0.043c-0.068,0.06-0.147,0.106-0.232,0.131  c-0.013,0.004-0.026,0.003-0.04,0.006c-0.074,0.016-0.151,0.015-0.227,0.002c-0.027-0.004-0.053-0.007-0.079-0.015  c-0.091-0.028-0.18-0.071-0.256-0.146l-4.866-4.866C48.996,41.62,49.148,41.052,49.603,40.93z M27.719,36.929  c-1.081,0-1.957-0.876-1.957-1.957c0-1.081,0.876-1.957,1.957-1.957c1.081,0,1.957,0.876,1.957,1.957  C29.676,36.052,28.8,36.929,27.719,36.929z M34.445,46.965c-0.026,0.008-0.052,0.011-0.079,0.015  c-0.076,0.012-0.153,0.014-0.227-0.002c-0.013-0.003-0.027-0.003-0.04-0.006c-0.086-0.025-0.164-0.071-0.232-0.131  c-0.015-0.013-0.028-0.028-0.042-0.043c-0.065-0.07-0.12-0.151-0.148-0.253l-1.781-6.647c-0.029-0.108-0.023-0.212,0.002-0.309  c0.008-0.032,0.028-0.057,0.041-0.087c0.026-0.06,0.055-0.118,0.098-0.166c0.025-0.027,0.056-0.047,0.085-0.069  c0.047-0.036,0.096-0.068,0.152-0.09c0.036-0.014,0.075-0.02,0.114-0.027c0.083-0.014,0.167-0.025,0.257-0.001c0,0,0,0,0,0  l6.647,1.781c0.455,0.122,0.607,0.69,0.274,1.023l-4.866,4.866C34.626,46.895,34.537,46.937,34.445,46.965z M39.293,29.013  l-6.647,1.781c-0.09,0.024-0.174,0.013-0.257-0.001c-0.039-0.007-0.078-0.013-0.114-0.027c-0.056-0.022-0.105-0.054-0.152-0.09  c-0.029-0.023-0.06-0.042-0.085-0.069c-0.043-0.048-0.072-0.106-0.098-0.166c-0.013-0.029-0.033-0.055-0.041-0.087  c-0.025-0.097-0.031-0.201-0.002-0.309l1.781-6.647l0,0c0.027-0.102,0.083-0.183,0.147-0.252c0.014-0.015,0.027-0.03,0.042-0.043  c0.068-0.06,0.147-0.106,0.232-0.131c0.013-0.004,0.026-0.003,0.04-0.006c0.074-0.016,0.151-0.015,0.227-0.002  c0.027,0.004,0.053,0.007,0.079,0.015c0.091,0.028,0.18,0.071,0.256,0.146l4.866,4.866C39.9,28.322,39.747,28.891,39.293,29.013z   M20.992,22.978c0.026-0.008,0.052-0.011,0.079-0.015c0.076-0.012,0.153-0.014,0.227,0.002c0.013,0.003,0.027,0.003,0.04,0.006  c0.086,0.025,0.164,0.071,0.232,0.131c0.015,0.013,0.028,0.028,0.042,0.043c0.065,0.069,0.12,0.151,0.147,0.252l0,0l1.781,6.647  c0.029,0.108,0.023,0.212-0.002,0.309c-0.008,0.032-0.028,0.057-0.041,0.087c-0.026,0.06-0.055,0.118-0.098,0.166  c-0.025,0.027-0.056,0.047-0.085,0.069c-0.047,0.036-0.096,0.068-0.152,0.09c-0.036,0.014-0.075,0.02-0.114,0.027  c-0.083,0.014-0.167,0.025-0.257,0.001l-6.647-1.781c-0.455-0.122-0.607-0.691-0.274-1.024l4.866-4.866  C20.812,23.048,20.901,23.005,20.992,22.978z M16.145,40.93l6.647-1.781l0,0c0.089-0.024,0.174-0.013,0.257,0.001  c0.039,0.007,0.078,0.013,0.114,0.027c0.056,0.022,0.105,0.054,0.152,0.09c0.029,0.023,0.06,0.042,0.085,0.069  c0.043,0.048,0.072,0.106,0.098,0.166c0.013,0.029,0.033,0.055,0.041,0.087c0.025,0.097,0.031,0.201,0.002,0.309l-1.781,6.647  c-0.027,0.102-0.083,0.183-0.148,0.253c-0.014,0.015-0.027,0.03-0.042,0.043c-0.068,0.06-0.147,0.106-0.232,0.131  c-0.013,0.004-0.026,0.003-0.04,0.006c-0.074,0.016-0.151,0.015-0.227,0.002c-0.027-0.004-0.053-0.007-0.079-0.015  c-0.091-0.028-0.18-0.071-0.256-0.146l-4.866-4.866C15.538,41.62,15.69,41.052,16.145,40.93z"/><text x="0" y="115" fill="#000000" font-size="5px" font-weight="bold" font-family="'Helvetica Neue', Helvetica, Arial-Unicode, Arial, Sans-serif">Created by Romualdas Jurgaitis</text><text x="0" y="120" fill="#000000" font-size="5px" font-weight="bold" font-family="'Helvetica Neue', Helvetica, Arial-Unicode, Arial, Sans-serif">from the Noun Project</text></svg>