<svg xmlns="http://www.w3.org/2000/svg" xmlns:xlink="http://www.w3.org/1999/xlink" version="1.1" x="0px" y="0px" viewBox="0 0 100 125" enable-background="new 0 0 100 100" xml:space="preserve"><path d="M85.856,26.877c-0.354-0.418-0.871-0.657-1.418-0.657h-0.78c0.202-0.554,0.322-1.144,0.322-1.759  c0-2.828-2.301-5.128-5.128-5.128c-0.544,0-1.085,0.09-1.604,0.265c0.065-0.323,0.098-0.649,0.098-0.979  c0-2.828-2.301-5.128-5.128-5.128c-1.935,0-3.699,1.113-4.563,2.823c-1.335-0.739-2.971-0.835-4.381-0.259  c-0.064-2.772-2.34-5.008-5.127-5.008c-1.663,0-3.227,0.831-4.184,2.195c-0.662-0.299-1.353-0.45-2.058-0.45  c-2.74,0-4.985,2.161-5.121,4.868c-0.385-0.124-0.774-0.2-1.168-0.228c0.104-0.409,0.156-0.83,0.156-1.257  c0-2.828-2.301-5.128-5.128-5.128c-2.681,0-4.888,2.067-5.11,4.69c-0.344-0.057-0.669-0.077-0.982-0.052  c-0.247-2.599-2.442-4.638-5.105-4.638c-2.666,0-4.864,2.046-5.105,4.65c-2.605,0.242-4.651,2.439-4.651,5.106  c0,0.12,0.007,0.238,0.018,0.353c-2.279,0.561-3.887,2.574-3.887,4.958c0,0.036,0.007,0.069,0.008,0.105h-0.266  c-0.547,0-1.064,0.24-1.418,0.657c-0.354,0.418-0.505,0.967-0.415,1.507l0.723,4.343l9.725,58.392l0,0l0.092,0.553  c0.15,0.9,0.921,1.553,1.833,1.553h0.561h46.673h0.561c0.912,0,1.684-0.653,1.833-1.553l0.092-0.553l0,0l10.32-61.964v0l0.128-0.771  C86.361,27.844,86.21,27.294,85.856,26.877z M20.34,22.05l0.503-0.075l-0.084-0.501c-0.036-0.219-0.069-0.441-0.069-0.67  c0-2.276,1.853-4.128,4.129-4.128h0.5v-0.5c0-2.276,1.852-4.128,4.128-4.128s4.129,1.852,4.131,4.087l-0.01,0.705l0.581-0.095  c0.534-0.088,1.058-0.093,1.754,0.099l0.664,0.183l-0.032-0.688l-0.019-0.162c0-2.276,1.853-4.128,4.129-4.128  s4.128,1.852,4.128,4.128c0,0.548-0.107,1.083-0.318,1.588l-0.315,0.754l0.814-0.063c0.058-0.004,0.114-0.012,0.171-0.02  c0.642-0.09,1.335,0.111,1.98,0.434l0.822,0.41l-0.122-1.074c-0.013-0.094-0.027-0.187-0.027-0.285c0-2.276,1.852-4.128,4.128-4.128  c0.684,0,1.354,0.181,1.994,0.537l0.432,0.241l0.245-0.429c0.739-1.292,2.107-2.094,3.57-2.094c2.276,0,4.128,1.852,4.128,4.128  c0,0.226-0.033,0.443-0.067,0.66l-0.179,1.105l0.942-0.605c1.408-0.906,3.26-0.856,4.619,0.119l0.536,0.385l0.225-0.621  c0.592-1.632,2.146-2.728,3.867-2.728c2.276,0,4.128,1.852,4.128,4.128c0,0.582-0.129,1.158-0.383,1.712l-0.691,1.51l1.41-0.877  c0.664-0.413,1.414-0.631,2.17-0.631c2.276,0,4.128,1.852,4.128,4.128c0,0.623-0.14,1.22-0.393,1.759H16.829  c-0.001-0.036-0.009-0.069-0.009-0.105C16.82,24.063,18.3,22.354,20.34,22.05z M32.411,92.225L24.678,27.22h10.129l4.64,65.006  H32.411z M46.482,92.225L44.935,27.22h10.129l-1.547,65.006H46.482z M60.554,92.225l4.64-65.006h10.129l-7.733,65.006H60.554z"/><text x="0" y="115" fill="#000000" font-size="5px" font-weight="bold" font-family="'Helvetica Neue', Helvetica, Arial-Unicode, Arial, Sans-serif">Created by Romualdas Jurgaitis</text><text x="0" y="120" fill="#000000" font-size="5px" font-weight="bold" font-family="'Helvetica Neue', Helvetica, Arial-Unicode, Arial, Sans-serif">from the Noun Project</text></svg>