<svg xmlns="http://www.w3.org/2000/svg" xmlns:xlink="http://www.w3.org/1999/xlink" version="1.1" x="0px" y="0px" viewBox="0 0 100 125" enable-background="new 0 0 100 100" xml:space="preserve"><g><path fill-rule="evenodd" clip-rule="evenodd" d="M41.402,69.266c1.126-3.336,4.124-5.816,7.743-6.172   c-0.166-4.125-3.564-7.433-7.731-7.433h-0.216c-4.162,0-7.56,3.303-7.731,7.423C37.174,63.366,40.259,65.871,41.402,69.266z"/><path fill-rule="evenodd" clip-rule="evenodd" d="M76.29,55.78h-0.217c-4.12,0-7.49,3.236-7.725,7.299   c4.59,0.302,8.255,4.006,8.496,8.613h7.192v-8.165C84.037,59.256,80.562,55.78,76.29,55.78z"/><path fill-rule="evenodd" clip-rule="evenodd" d="M75.393,70.979c-0.364-2.34-1.775-4.334-3.743-5.488   c-0.006-0.004-0.012-0.007-0.018-0.011c-0.186-0.108-0.375-0.207-0.569-0.3c-0.019-0.009-0.036-0.018-0.054-0.025   c-0.19-0.089-0.385-0.169-0.582-0.242c-0.023-0.009-0.045-0.018-0.068-0.025c-0.197-0.071-0.398-0.134-0.604-0.189   c-0.022-0.006-0.045-0.012-0.068-0.018c-0.208-0.054-0.418-0.101-0.633-0.137c-0.018-0.003-0.033-0.005-0.051-0.008   c-0.223-0.036-0.447-0.064-0.676-0.082c-0.001,0-0.001,0-0.002,0c-0.191-0.015-0.383-0.029-0.578-0.029H67.53   c-3.676,0-6.756,2.577-7.545,6.019c4.375,0.668,7.742,4.446,7.742,9.007v0.886h7.767v-8.163   C75.494,71.766,75.453,71.369,75.393,70.979C75.393,70.979,75.393,70.979,75.393,70.979z"/><path fill-rule="evenodd" clip-rule="evenodd" d="M49.416,78.049c-0.022-0.163-0.042-0.327-0.074-0.486   c-0.021-0.107-0.052-0.21-0.077-0.315c-0.034-0.137-0.064-0.274-0.105-0.408c-0.035-0.114-0.078-0.225-0.117-0.336   c-0.043-0.12-0.083-0.24-0.131-0.357c-0.049-0.118-0.105-0.232-0.16-0.349c-0.049-0.104-0.096-0.208-0.149-0.31   c-0.063-0.121-0.135-0.238-0.205-0.356c-0.053-0.088-0.104-0.177-0.16-0.263c-0.081-0.124-0.167-0.243-0.255-0.361   c-0.054-0.073-0.106-0.146-0.162-0.218c-0.099-0.124-0.201-0.242-0.307-0.359c-0.053-0.06-0.105-0.118-0.16-0.176   c-0.115-0.122-0.236-0.238-0.359-0.353c-0.05-0.046-0.099-0.091-0.149-0.136c-0.134-0.117-0.272-0.229-0.415-0.339   c-0.045-0.033-0.09-0.066-0.135-0.1c-0.152-0.111-0.311-0.218-0.472-0.317c-0.038-0.023-0.075-0.047-0.114-0.069   c-0.172-0.104-0.348-0.2-0.527-0.289c-0.03-0.016-0.061-0.029-0.091-0.044c-0.19-0.092-0.384-0.176-0.583-0.252   c-0.021-0.009-0.044-0.017-0.066-0.024c-0.208-0.078-0.42-0.147-0.636-0.207c-0.013-0.003-0.025-0.006-0.038-0.01   c-0.226-0.062-0.455-0.112-0.688-0.153c-0.004-0.001-0.008-0.001-0.011-0.002c-0.431-0.074-0.87-0.121-1.321-0.121H41.53   c-2.044,0-3.9,0.802-5.287,2.1c-0.023,0.022-0.048,0.043-0.071,0.065c-0.127,0.122-0.247,0.25-0.366,0.38   c-0.043,0.048-0.088,0.095-0.131,0.144c-0.102,0.118-0.199,0.241-0.295,0.365c-0.051,0.067-0.103,0.136-0.152,0.204   c-0.083,0.116-0.162,0.235-0.238,0.355c-0.054,0.085-0.106,0.171-0.157,0.259c-0.066,0.113-0.129,0.228-0.19,0.345   c-0.052,0.102-0.101,0.205-0.149,0.31c-0.051,0.11-0.101,0.221-0.147,0.335c-0.047,0.116-0.089,0.236-0.131,0.355   c-0.037,0.107-0.076,0.215-0.108,0.324c-0.04,0.134-0.072,0.271-0.105,0.407c-0.024,0.101-0.051,0.2-0.071,0.302   c-0.031,0.159-0.053,0.322-0.074,0.484c-0.011,0.085-0.027,0.168-0.035,0.254c-0.024,0.249-0.039,0.502-0.039,0.759v1.25v2.487   h15.71v-2.487v-1.25c0-0.261-0.014-0.519-0.039-0.772C49.446,78.223,49.428,78.137,49.416,78.049z"/><path fill-rule="evenodd" clip-rule="evenodd" d="M66.28,78.441c-0.021-0.161-0.043-0.322-0.074-0.48   c-0.02-0.101-0.046-0.199-0.07-0.3c-0.031-0.137-0.064-0.272-0.104-0.406c-0.033-0.108-0.07-0.214-0.106-0.32   c-0.041-0.119-0.083-0.237-0.13-0.354c-0.045-0.113-0.094-0.224-0.145-0.334c-0.047-0.103-0.096-0.204-0.146-0.305   c-0.061-0.116-0.122-0.231-0.188-0.346c-0.049-0.085-0.101-0.168-0.152-0.251c-0.077-0.122-0.154-0.242-0.238-0.359   c-0.045-0.063-0.093-0.125-0.141-0.188c-0.098-0.13-0.196-0.258-0.302-0.381c-0.028-0.033-0.059-0.063-0.087-0.097   c-1.421-1.602-3.488-2.619-5.793-2.619H58.39c-0.137,0-0.271,0.014-0.406,0.021h-0.002c-1.326,0.069-2.563,0.473-3.632,1.129   c-0.02,0.012-0.039,0.023-0.058,0.036c-0.158,0.099-0.312,0.202-0.461,0.312c-0.031,0.022-0.062,0.046-0.092,0.068   c-0.144,0.108-0.285,0.221-0.42,0.338c-0.027,0.023-0.053,0.048-0.078,0.071c-0.432,0.385-0.82,0.815-1.156,1.287   c-0.018,0.023-0.036,0.046-0.053,0.07c-0.086,0.123-0.164,0.251-0.242,0.379c-0.043,0.068-0.086,0.137-0.127,0.207   c-0.068,0.12-0.133,0.243-0.195,0.368c-0.041,0.083-0.082,0.166-0.12,0.25c-0.057,0.123-0.11,0.247-0.16,0.373   c-0.036,0.09-0.067,0.182-0.101,0.273c-0.045,0.127-0.089,0.254-0.127,0.384c-0.027,0.094-0.05,0.189-0.074,0.285   c-0.153,0.608-0.244,1.241-0.244,1.896v3.53h15.711v-2.645v-0.886c0-0.255-0.014-0.507-0.037-0.755   C66.307,78.608,66.291,78.525,66.28,78.441z"/><path fill-rule="evenodd" clip-rule="evenodd" d="M86.5,17.021h-73c-2.413,0-4.375,1.963-4.375,4.376v40   c0,2.413,1.963,4.376,4.375,4.376h0.295h0.397h0.262v-4.252h-0.659H13.5c-0.063,0-0.124-0.061-0.124-0.124v-40   c0-0.063,0.06-0.124,0.124-0.124h73c0.063,0,0.124,0.061,0.124,0.124v40c0,0.063-0.061,0.124-0.124,0.124h-0.56h-0.758v4.252h0.229   h0.528h0.56c2.413,0,4.376-1.963,4.376-4.376v-40C90.876,18.983,88.913,17.021,86.5,17.021z"/><path fill-rule="evenodd" clip-rule="evenodd" d="M31.658,63.094c-0.167-4.125-3.566-7.433-7.732-7.433H23.71   c-4.272,0-7.748,3.476-7.748,7.747v8.164h7.5C23.754,67.119,27.245,63.526,31.658,63.094z"/><path fill-rule="evenodd" clip-rule="evenodd" d="M58.891,69.266c1.126-3.336,4.124-5.816,7.743-6.172   c-0.166-4.125-3.565-7.433-7.731-7.433h-0.216c-4.162,0-7.56,3.303-7.73,7.423C54.661,63.367,57.747,65.871,58.891,69.266z"/><path fill-rule="evenodd" clip-rule="evenodd" d="M40.22,70.067c-0.92-3.251-3.908-5.644-7.449-5.644h-0.216   c-0.298,0-0.591,0.021-0.88,0.054c-0.003,0-0.007,0.001-0.011,0.002c-0.633,0.072-1.24,0.226-1.817,0.442   c-0.057,0.021-0.115,0.04-0.172,0.063c-0.15,0.061-0.296,0.128-0.442,0.197c-0.065,0.031-0.131,0.062-0.195,0.095   c-0.14,0.071-0.276,0.148-0.412,0.229c-0.063,0.037-0.125,0.074-0.188,0.113c-0.134,0.085-0.266,0.173-0.394,0.266   c-0.055,0.039-0.108,0.08-0.162,0.121c-0.131,0.1-0.26,0.201-0.385,0.309c-0.04,0.034-0.078,0.07-0.116,0.105   c-0.134,0.121-0.266,0.243-0.392,0.373c-0.002,0.003-0.004,0.005-0.006,0.007c-0.597,0.619-1.088,1.337-1.454,2.125   c-0.008,0.017-0.017,0.033-0.024,0.05c-0.082,0.18-0.155,0.363-0.223,0.55c-0.011,0.03-0.022,0.061-0.033,0.091   c-0.064,0.184-0.121,0.37-0.172,0.56c-0.009,0.033-0.018,0.067-0.026,0.102c-0.049,0.191-0.091,0.386-0.125,0.583   c-0.005,0.027-0.008,0.056-0.013,0.084c-0.033,0.207-0.06,0.415-0.076,0.627c0,0.001,0,0.001,0,0.002   c-0.015,0.198-0.03,0.397-0.03,0.6v8.163h7.601v-1.25C32.408,74.501,35.81,70.706,40.22,70.067z"/><path fill-rule="evenodd" clip-rule="evenodd" d="M57.782,70.357c-0.82-3.398-3.877-5.934-7.523-5.934h-0.216   c-3.521,0-6.493,2.361-7.435,5.582c3.405,0.321,6.266,2.523,7.543,5.551C51.532,72.644,54.406,70.581,57.782,70.357z"/></g><text x="0" y="115" fill="#000000" font-size="5px" font-weight="bold" font-family="'Helvetica Neue', Helvetica, Arial-Unicode, Arial, Sans-serif">Created by Nikita Kozin</text><text x="0" y="120" fill="#000000" font-size="5px" font-weight="bold" font-family="'Helvetica Neue', Helvetica, Arial-Unicode, Arial, Sans-serif">from the Noun Project</text></svg>