<svg xmlns="http://www.w3.org/2000/svg" xmlns:xlink="http://www.w3.org/1999/xlink" version="1.1" x="0px" y="0px" viewBox="0 0 100 125" enable-background="new 0 0 100 100" xml:space="preserve"><path d="M36.584,54.739v-7.874h-1.813v-1.603h4.855v1.603h-1.809v7.874H36.584z"/><path d="M40.384,54.739v-9.477h1.233v9.477H40.384z"/><path d="M46.702,51.254l1.196,0.588c-0.183,1.034-0.488,1.803-0.915,2.305c-0.426,0.502-0.967,0.753-1.623,0.753  c-0.811,0-1.478-0.43-2-1.29c-0.522-0.86-0.783-2.035-0.783-3.526c0-1.577,0.263-2.802,0.788-3.675  c0.525-0.873,1.215-1.309,2.071-1.309c0.747,0,1.354,0.342,1.821,1.028c0.278,0.405,0.486,0.987,0.625,1.745l-1.221,0.452  c-0.072-0.491-0.223-0.879-0.452-1.164c-0.229-0.284-0.508-0.426-0.836-0.426c-0.453,0-0.82,0.252-1.102,0.756  c-0.282,0.504-0.423,1.321-0.423,2.45c0,1.198,0.139,2.051,0.417,2.56c0.278,0.508,0.639,0.763,1.083,0.763  c0.328,0,0.61-0.161,0.846-0.485C46.429,52.457,46.599,51.948,46.702,51.254z"/><path d="M77.574,46.963c0.473-0.147,0.641-0.483,0.641-0.748s-0.168-0.6-0.641-0.748l-1.469-0.456v-0.117l1.469-0.456  c0.473-0.147,0.641-0.483,0.641-0.748s-0.168-0.6-0.641-0.748l-1.617-0.501c-0.174-0.291-0.492-0.489-0.855-0.512  c-0.27-0.018-0.535-0.048-0.795-0.092c-2.929-0.494-5.136-2.62-5.366-5.168c-0.048-0.541-0.517-0.949-1.091-0.949H32.137  c-0.566,0-1.029,0.404-1.076,0.939c-0.013,0.145-0.032,0.288-0.057,0.428c-0.461,2.597-3.016,4.632-6.074,4.84  c-0.381,0.026-0.706,0.221-0.883,0.513l-1.621,0.503c-0.473,0.147-0.641,0.483-0.641,0.748s0.168,0.6,0.641,0.748l1.469,0.456v0.117  l-1.469,0.456c-0.473,0.147-0.641,0.483-0.641,0.748s0.168,0.6,0.641,0.748l1.469,0.456v0.117l-1.469,0.456  c-0.473,0.146-0.641,0.482-0.641,0.747c0,0.265,0.168,0.601,0.641,0.748l1.469,0.456v0.117l-1.469,0.456  c-0.473,0.146-0.641,0.482-0.641,0.747c0,0.266,0.168,0.601,0.641,0.748l1.469,0.456v0.117l-1.469,0.456  c-0.473,0.147-0.641,0.483-0.641,0.748s0.168,0.6,0.641,0.748l1.469,0.456v0.117l-1.469,0.456c-0.473,0.147-0.641,0.483-0.641,0.748  s0.168,0.6,0.641,0.748l1.617,0.501c0.175,0.291,0.493,0.489,0.857,0.512c0.258,0.017,0.512,0.046,0.761,0.086  c2.946,0.484,5.167,2.612,5.398,5.174c0.048,0.541,0.517,0.949,1.091,0.949h35.7c0.565,0,1.043-0.404,1.087-0.919  c0.022-0.245,0.06-0.485,0.115-0.721c0.588-2.488,3.063-4.367,6.018-4.567c0.382-0.026,0.706-0.222,0.883-0.513l1.621-0.502  c0.473-0.147,0.641-0.483,0.641-0.748s-0.168-0.6-0.641-0.748l-1.469-0.456v-0.117l1.469-0.456c0.473-0.147,0.641-0.483,0.641-0.748  s-0.168-0.6-0.641-0.748l-1.469-0.456v-0.117l1.469-0.456c0.473-0.146,0.641-0.482,0.641-0.748c0-0.265-0.168-0.601-0.641-0.747  l-1.469-0.456v-0.117l1.469-0.456c0.473-0.147,0.641-0.483,0.641-0.748c0-0.265-0.168-0.6-0.641-0.747l-1.469-0.456v-0.117  L77.574,46.963z M76.605,48.739l-1.5,0.466v1.59l1.5,0.467l-1.5,0.466v1.591l1.5,0.467l-1.5,0.465v1.591l1.5,0.467L75.16,56.75  l-0.062,0.287c-0.004,0.006-0.034,0.032-0.097,0.036c-3.389,0.23-6.234,2.425-6.922,5.335c-0.067,0.283-0.113,0.571-0.13,0.837  c-0.005,0.007-0.039,0.033-0.1,0.033h-35.7c-0.063,0-0.092-0.03-0.095-0.039c-0.273-3.016-2.836-5.513-6.232-6.071  c-0.28-0.046-0.567-0.08-0.92-0.121l-0.06-0.29l-1.449-0.451l1.5-0.465V54.25l-1.5-0.467l1.5-0.465v-1.591l-1.5-0.467l1.5-0.466  v-1.59l-1.5-0.467l1.5-0.466v-1.591l-1.5-0.467l1.5-0.465v-1.591l-1.5-0.467l1.444-0.442l0.062-0.285  c0.004-0.006,0.034-0.033,0.098-0.037c3.566-0.243,6.441-2.571,6.99-5.664c0.03-0.17,0.054-0.342,0.148-0.542H67.85  c0.063,0,0.092,0.03,0.095,0.039c0.271,3.001,2.819,5.495,6.195,6.065c0.294,0.049,0.593,0.084,0.957,0.127l0.06,0.29l1.449,0.451  l-1.5,0.465v1.591l1.5,0.467l-1.5,0.465v1.591L76.605,48.739z"/><path d="M61.867,38.791H38.133c-3.161,0-5.733,2.572-5.733,5.734v10.95c0,3.162,2.572,5.734,5.733,5.734h23.734  c3.161,0,5.733-2.572,5.733-5.734v-10.95C67.601,41.363,65.028,38.791,61.867,38.791z M66.601,55.475  c0,2.61-2.123,4.734-4.733,4.734H38.133c-2.61,0-4.733-2.124-4.733-4.734v-10.95c0-2.61,2.123-4.734,4.733-4.734h23.734  c2.61,0,4.733,2.124,4.733,4.734V55.475z"/><polygon points="54.357,45.261 52.698,45.261 50.206,49.47 50.206,45.261 48.973,45.261 48.973,54.739 50.206,54.739 50.206,51.875   51.206,50.291 52.886,54.739 54.482,54.739 52.056,48.953 "/><polygon points="56.353,50.563 59.42,50.563 59.42,48.966 56.353,48.966 56.353,46.865 59.649,46.865 59.649,45.261 55.119,45.261   55.119,54.739 59.766,54.739 59.766,53.142 56.353,53.142 "/><polygon points="60.374,46.865 62.187,46.865 62.187,54.739 63.42,54.739 63.42,46.865 65.229,46.865 65.229,45.261 60.374,45.261   "/><text x="0" y="115" fill="#000000" font-size="5px" font-weight="bold" font-family="'Helvetica Neue', Helvetica, Arial-Unicode, Arial, Sans-serif">Created by Romualdas Jurgaitis</text><text x="0" y="120" fill="#000000" font-size="5px" font-weight="bold" font-family="'Helvetica Neue', Helvetica, Arial-Unicode, Arial, Sans-serif">from the Noun Project</text></svg>